<svg xmlns="http://www.w3.org/2000/svg" xmlns:xlink="http://www.w3.org/1999/xlink" width="268.886" height="50" viewBox="0 0 268.886 50"><defs><style>.a{fill:url(#a);}.b{fill:url(#b);}.c{fill:url(#c);}.d{fill:url(#d);}.e{fill:url(#e);}.f{fill:url(#f);}.g{fill:url(#g);}.h{fill:url(#h);}.i{fill:url(#i);}.j{fill:url(#j);}.k{fill:url(#k);}.l{fill:url(#l);}.m{fill:url(#m);}.n{fill:url(#n);}.o{fill:url(#o);}.p{fill:url(#p);}.q{fill:#fff;}</style><radialGradient id="a" cx="-268.179" cy="-712.064" r="77.577" gradientTransform="translate(-185.017 -461.688) scale(0.645 0.645)" gradientUnits="userSpaceOnUse"><stop offset="0" stop-color="#66cbf6"/><stop offset="0.5" stop-color="#0090da"/><stop offset="1" stop-color="#00428c"/></radialGradient><radialGradient id="b" cx="-779.608" cy="-2172.982" r="204.416" gradientTransform="translate(-752.878 -2084.684) scale(0.245 0.245)" xlink:href="#a"/><radialGradient id="c" cx="187.174" cy="340.703" r="53.611" gradientTransform="translate(-4.593 -16.571) scale(0.933 0.933)" xlink:href="#a"/><radialGradient id="d" cx="-723.439" cy="-1510.055" r="117.351" gradientTransform="translate(-573.681 -1203.425) scale(0.426 0.426)" xlink:href="#a"/><radialGradient id="e" cx="-949.41" cy="-2172.895" r="204.378" gradientTransform="translate(-904.875 -2084.552) scale(0.245 0.245)" xlink:href="#a"/><radialGradient id="f" cx="-593.219" cy="-1509.96" r="117.355" gradientTransform="translate(-480.437 -1203.316) scale(0.426 0.426)" xlink:href="#a"/><radialGradient id="g" cx="1033.832" cy="2119.414" r="35.241" gradientTransform="translate(-312.015 -641.465) scale(1.419 1.419)" xlink:href="#a"/><radialGradient id="h" cx="770.498" cy="1580.522" r="39.315" gradientTransform="translate(-130.853 -269.927) scale(1.272 1.272)" xlink:href="#a"/><radialGradient id="i" cx="971.412" cy="2119.864" r="35.238" gradientTransform="translate(-297.776 -641.844) scale(1.419 1.419)" xlink:href="#a"/><radialGradient id="j" cx="2549.406" cy="5172.578" r="22.205" gradientTransform="translate(-2823.566 -5737.471) scale(2.252 2.252)" xlink:href="#a"/><radialGradient id="k" cx="2419.209" cy="5170.579" r="22.21" gradientTransform="translate(-2681.462 -5732.412) scale(2.251 2.251)" xlink:href="#a"/><radialGradient id="l" cx="7863.059" cy="15380.888" r="9.938" gradientTransform="translate(-30441.452 -59623.639) scale(5.031 5.031)" xlink:href="#a"/><radialGradient id="m" cx="7661.695" cy="15368.75" r="9.945" gradientTransform="translate(-29638.239 -59525.791) scale(5.028 5.028)" xlink:href="#a"/><radialGradient id="n" cx="161.006" cy="340.712" r="53.604" gradientTransform="translate(-8.542 -16.57) scale(0.933 0.933)" xlink:href="#a"/><radialGradient id="o" cx="726.725" cy="1580.527" r="39.315" gradientTransform="translate(-128.057 -269.93) scale(1.272 1.272)" xlink:href="#a"/><radialGradient id="p" cx="-352.185" cy="-711.811" r="77.562" gradientTransform="translate(-226.253 -461.508) scale(0.645 0.645)" xlink:href="#a"/></defs><g transform="translate(-254.041 -586.721)"><g transform="translate(254.041 586.721)"><path class="a" d="M265.4,594.98a49.635,49.635,0,0,0-7.032,3.746l-.907,5.564a48.5,48.5,0,0,0,7.867-4.409l19.27-13.007c-.249-.031-.5-.053-.745-.075Z" transform="translate(-252.728 -586.691)"/><path class="b" d="M275.157,586.721H259.714l-.647,3.936c1.049-.2,2.184-.45,3.428-.759Z" transform="translate(-252.109 -586.721)"/><path class="c" d="M266.468,600.679a44.7,44.7,0,0,0-9.188,7.916l-1.239,7.614a46.4,46.4,0,0,0,7.485-6.038l23.794-22.993c-.209-.051-.424-.1-.637-.143Z" transform="translate(-253.272 -586.601)"/><path class="d" d="M293.748,586.721h-1.235l16.475,7.306a51.7,51.7,0,0,0,6.207,2.357l-.7-4.334c-1.163-.374-2.453-.747-3.916-1.114Z" transform="translate(-239.256 -586.721)"/><path class="e" d="M309.261,589.9c1.243.309,2.382.559,3.429.759l-.641-3.936H296.6Z" transform="translate(-237.685 -586.721)"/><path class="f" d="M263.016,590.936c-1.466.367-2.76.741-3.918,1.114l-.7,4.334a52.056,52.056,0,0,0,6.207-2.357l16.473-7.306h-1.238Z" transform="translate(-252.368 -586.721)"/><path class="g" d="M286.771,587.872c-.2.1-.4.2-.6.318l15.344,32.923a45.967,45.967,0,0,0,7.554,11.717h8.789a44.769,44.769,0,0,0-5.5-9.567Z" transform="translate(-241.691 -586.279)"/><path class="h" d="M287.973,587.383c-.213.073-.431.151-.644.233l25.455,35.2a46.211,46.211,0,0,0,9.818,10.2h.61l-1.645-10.05c-2.119-3.364-3.655-6.652-9.357-12.158Z" transform="translate(-241.248 -586.467)"/><path class="i" d="M263.733,623.263a44.558,44.558,0,0,0-5.507,9.567h8.79a45.94,45.94,0,0,0,7.55-11.717L289.91,588.19c-.191-.113-.389-.223-.592-.318Z" transform="translate(-252.433 -586.279)"/><path class="j" d="M285.674,588.522q-.285.21-.558.443l7.4,32.051a44.186,44.186,0,0,0,4.2,11.6c.565-.022,1.123-.033,1.654-.033H304.7a44.689,44.689,0,0,0-3.743-11.268Z" transform="translate(-242.099 -586.029)"/><path class="k" d="M271.773,621.311a44.593,44.593,0,0,0-3.745,11.268h6.329c.533,0,1.088.011,1.656.033a44.379,44.379,0,0,0,4.2-11.6l7.4-32.048c-.184-.158-.367-.306-.559-.441Z" transform="translate(-248.666 -586.028)"/><path class="l" d="M284.632,589.468a8.157,8.157,0,0,0-.6.724v31.676a45.888,45.888,0,0,0,1.887,13.8,18.034,18.034,0,0,1,7.283-2.946,44.359,44.359,0,0,0-1.318-11.825Z" transform="translate(-242.514 -585.665)"/><path class="m" d="M277.955,620.895a44.815,44.815,0,0,0-1.322,11.825,18,18,0,0,1,7.287,2.946,45.943,45.943,0,0,0,1.891-13.8V590.192c-.2-.257-.393-.5-.6-.724Z" transform="translate(-245.363 -585.665)"/><path class="n" d="M289.29,587.034c-.215.04-.424.091-.635.143l23.792,22.993a46.523,46.523,0,0,0,7.486,6.038l-1.239-7.614a44.613,44.613,0,0,0-9.184-7.916Z" transform="translate(-240.738 -586.601)"/><path class="o" d="M265.041,610.81c-5.7,5.508-7.24,8.794-9.358,12.158l-1.642,10.05h.612a46.211,46.211,0,0,0,9.818-10.2l25.453-35.2c-.21-.082-.428-.159-.641-.233Z" transform="translate(-254.041 -586.467)"/><path class="p" d="M290.976,586.8c-.246.022-.5.044-.745.075L309.5,599.881a48.258,48.258,0,0,0,7.86,4.409l-.908-5.565a49.77,49.77,0,0,0-7.027-3.745Z" transform="translate(-240.133 -586.691)"/></g><g transform="translate(354.38 587.516)"><g transform="translate(2.571 35.166)"><path class="q" d="M328.381,612.8h3c2.353,0,2.8,1.573,2.8,4.25,0,1.318.2,4.333-2.87,4.333h-2.925Zm1.79,7.273h.873c1.091,0,1.305-.821,1.305-2.978,0-1.581,0-2.971-1.249-2.971h-.93Z" transform="translate(-328.381 -612.659)"/><path class="q" d="M333.845,617.133c0-2.27,0-4.435,2.965-4.435s2.958,2.165,2.958,4.435c0,2.251,0,4.437-2.958,4.437S333.845,619.384,333.845,617.133Zm4.107,0c0-2.2-.133-3.151-1.142-3.151s-1.145.95-1.145,3.151.133,3.155,1.145,3.155S337.952,619.34,337.952,617.133Z" transform="translate(-326.281 -612.698)"/><path class="q" d="M339.468,621.382V612.8h2.425l2.287,5.946h.025V612.8h1.676v8.583h-2.37l-2.339-6.268h-.029v6.268Z" transform="translate(-324.12 -612.659)"/><path class="q" d="M349.436,615.482c.015-.8-.111-1.5-1.065-1.5-1.121,0-1.121,1.513-1.121,3.176,0,2.687.267,3.167,1.29,3.167a2.944,2.944,0,0,0,.893-.166v-2.115h-.975v-1.319h2.77v4.56a16.353,16.353,0,0,1-2.429.285c-3.025,0-3.368-1.245-3.368-4.5,0-2.168.112-4.367,3.05-4.367a2.455,2.455,0,0,1,2.748,2.784Z" transform="translate(-321.829 -612.698)"/><path class="q" d="M352.809,618.414l-2.243-5.615h1.963l1.283,3.631,1.365-3.631h1.834l-2.407,5.615v2.968h-1.8Z" transform="translate(-319.855 -612.659)"/><path class="q" d="M355.181,621.382l2.38-8.583h2.369l2.327,8.583h-1.888l-.475-1.891h-2.447l-.491,1.891Zm3.458-6.924h-.021l-.822,3.709h1.712Z" transform="translate(-318.082 -612.659)"/><path class="q" d="M361.213,621.382V612.8h2.427l2.288,5.946h.025V612.8h1.675v8.583h-2.367l-2.345-6.268h-.024v6.268Z" transform="translate(-315.763 -612.659)"/><path class="q" d="M371.193,615.482c.007-.8-.126-1.5-1.074-1.5-1.119,0-1.119,1.513-1.119,3.176,0,2.687.264,3.167,1.287,3.167a2.848,2.848,0,0,0,.887-.166v-2.115H370.2v-1.319h2.771v4.56a16.354,16.354,0,0,1-2.43.285c-3.019,0-3.365-1.245-3.365-4.5,0-2.168.107-4.367,3.052-4.367a2.451,2.451,0,0,1,2.742,2.784Z" transform="translate(-313.471 -612.698)"/><path class="q" d="M374.974,621.382V612.8h2.892l1.341,5.842h.028l1.429-5.842h2.792v8.583h-1.75v-6.614h-.019l-1.653,6.614H378.32l-1.575-6.614h-.018v6.614Z" transform="translate(-310.475 -612.659)"/><path class="q" d="M382.464,621.382V612.8h1.791v8.583Z" transform="translate(-307.596 -612.659)"/><path class="q" d="M386.923,621.382h-1.8V612.8h3.314c1.232,0,2.017.792,2.017,2.256a1.844,1.844,0,0,1-1.6,2.1v.028a1.527,1.527,0,0,1,1.562,1.692,11.539,11.539,0,0,0,.2,2.508h-1.765a3.831,3.831,0,0,1-.19-1.654c0-1.027.1-1.892-1.285-1.892h-.462Zm0-4.867h.8c.717,0,.915-.711.915-1.262,0-.824-.342-1.128-.915-1.128h-.8Z" transform="translate(-306.573 -612.659)"/><path class="q" d="M389.759,621.382l2.378-8.583h2.369l2.333,8.583h-1.89l-.472-1.891h-2.454l-.482,1.891Zm3.461-6.924h-.028l-.818,3.709h1.719Z" transform="translate(-304.793 -612.659)"/><path class="q" d="M395.786,621.382V612.8h4.68v1.325h-2.882v2.112h2.662v1.323h-2.662v2.513h2.978v1.31Z" transform="translate(-302.476 -612.659)"/><path class="q" d="M408.4,612.8v6.1c0,1.275-.72,2.637-2.911,2.637-1.971,0-2.925-1.02-2.925-2.637v-6.1h1.8v5.973c0,1.065.45,1.477,1.106,1.477.782,0,1.138-.522,1.138-1.477V612.8Z" transform="translate(-299.87 -612.659)"/><path class="q" d="M408.151,621.382V612.8h2.431l2.287,5.946h.019V612.8h1.679v8.583H412.2l-2.344-6.268h-.018v6.268Z" transform="translate(-297.724 -612.659)"/><path class="q" d="M414.177,621.382V612.8h1.8v8.583Z" transform="translate(-295.409 -612.659)"/><path class="q" d="M416.372,612.8h1.866l1.333,6.25h.019l1.5-6.25h1.776l-2.272,8.583h-2.1Z" transform="translate(-294.565 -612.659)"/><path class="q" d="M421.947,621.382V612.8h4.69v1.325h-2.889v2.112h2.663v1.323h-2.663v2.513h2.982v1.31Z" transform="translate(-292.423 -612.659)"/><path class="q" d="M428.315,621.382h-1.794V612.8h3.32c1.224,0,2.011.792,2.011,2.256a1.841,1.841,0,0,1-1.6,2.1v.028a1.528,1.528,0,0,1,1.564,1.692,12.029,12.029,0,0,0,.194,2.508h-1.758a3.96,3.96,0,0,1-.188-1.654c0-1.027.09-1.892-1.28-1.892h-.471Zm0-4.867h.8c.713,0,.919-.711.919-1.262,0-.824-.346-1.128-.919-1.128h-.8Z" transform="translate(-290.665 -612.659)"/><path class="q" d="M434.025,621.57c-2.227,0-2.645-1.31-2.549-2.791h1.794c0,.822.039,1.509,1.023,1.509a.859.859,0,0,0,.909-.975c0-1.548-3.621-1.645-3.621-4.2,0-1.343.647-2.414,2.834-2.414,1.744,0,2.611.783,2.494,2.58h-1.746c0-.642-.107-1.3-.828-1.3a.838.838,0,0,0-.934.915c0,1.631,3.617,1.484,3.617,4.19C437.019,621.317,435.391,621.57,434.025,621.57Z" transform="translate(-288.765 -612.698)"/><path class="q" d="M436.707,621.382V612.8h1.8v8.583Z" transform="translate(-286.75 -612.659)"/><path class="q" d="M444.708,612.8v1.434H442.7v7.149h-1.791v-7.149h-2V612.8Z" transform="translate(-285.905 -612.659)"/><path class="q" d="M445.763,618.414l-2.247-5.615h1.964l1.278,3.631,1.376-3.631h1.827l-2.4,5.615v2.968h-1.794Z" transform="translate(-284.133 -612.659)"/></g><path class="q" d="M379.228,588.068v24.771h3.623V588.068Zm-16.041,14.591a1.827,1.827,0,0,0,1.829,1.826h10.571V589.094h-12.4ZM366.81,591.7h5.151v10.182H366.81Z" transform="translate(-312.434 -586.998)"/><path class="q" d="M397.177,588.068V595.5h-1.656v-7.432h-3.41v14.1h-7.985v-4.066h5.588v-9.012h-9.21v2.6H386.1v3.8h-5.591v7.448a1.826,1.826,0,0,0,1.822,1.829h9.784v6.418h3.41V598.111h1.656v14.728h3.414V588.068Z" transform="translate(-305.778 -586.998)"/><path class="q" d="M414.775,588.068V595.5h-1.664v-7.432H409.7v14.1h-7.972V591.7h5.589v-2.6H398.1v13.854a1.824,1.824,0,0,0,1.824,1.829H409.7v6.418h3.414V598.111h1.664v14.728h3.4V588.068Z" transform="translate(-299.017 -586.998)"/><path class="q" d="M434.677,593.3v-4.932h-3.619V602.4h3.619v-6.5h2.867v-2.6Zm-17.559,13.67h13.94v7.478h3.619V604.369H417.119Zm11.725-10.792A5.365,5.365,0,0,0,426.715,592h2.078v-2.612h-5.025v-2.1h-3.621v2.1h-5.029V592h2.076a5.37,5.37,0,0,0-2.13,4.172c0,3.192,3.1,5.789,6.894,5.789S428.844,599.368,428.844,596.175Zm-10.2,0a3.3,3.3,0,1,1,3.308,3.22A3.272,3.272,0,0,1,418.648,596.175Z" transform="translate(-292.497 -587.295)"/><path class="q" d="M339.415,599.349v-2.308h6.7v-2.605H332.748v-3.385h13.371v-2.607H329.095v6.772a1.826,1.826,0,0,0,1.829,1.825H335.8v2.308h-9.274v2.611H348.69v-2.611Zm-1.808,3.594c-4.632,0-8.4,2.573-8.4,5.739s3.771,5.742,8.4,5.742,8.41-2.576,8.41-5.742S342.243,602.943,337.607,602.943Zm0,8.839c-2.618,0-4.758-1.39-4.758-3.1s2.14-3.1,4.758-3.1,4.762,1.387,4.762,3.1S340.236,611.782,337.607,611.782Z" transform="translate(-326.524 -586.853)"/><path class="q" d="M366.764,593.482v-2.605H363.9v-2.809h-3.62V602.1h3.62v-4.178h2.863V595.32H363.9v-1.838Zm-8.815,1.287c0-3.544-3.158-6.436-7.031-6.436s-7.031,2.892-7.031,6.436,3.156,6.433,7.031,6.433S357.949,598.316,357.949,594.769Zm-10.431,0a3.419,3.419,0,1,1,3.4,3.79A3.62,3.62,0,0,1,347.518,594.769Zm8.011,7.878c-4.642,0-8.4,2.674-8.4,5.962s3.761,5.959,8.4,5.959,8.406-2.672,8.406-5.959S360.161,602.648,355.529,602.648Zm0,9.278c-2.625,0-4.768-1.492-4.768-3.315s2.143-3.317,4.768-3.317,4.769,1.484,4.769,3.317S358.155,611.925,355.529,611.925Z" transform="translate(-319.851 -586.998)"/><g transform="translate(146.37 2.096)"><path class="q" d="M451.779,603.6v-14.79H434.748v2.608h13.406V603.6Zm-5.867,2.1v-9.131H442.5V605.7h-1.931v-9.131h-3.412V605.7h-4.9v2.607h22.177V605.7Z" transform="translate(-432.259 -588.809)"/></g></g></g></svg>